Coordinates
version=1
nRows=24
nColumns=24
inDegrees=yes

Units are S.I. units (second, meters, Newtons, ...)
Angles are in degrees.

endheader
time	pelvis_tilt	pelvis_list	pelvis_rotation	pelvis_tx	pelvis_ty	pelvis_tz	hip_flexion_r	hip_adduction_r	hip_rotation_r	knee_angle_r	ankle_angle_r	subtalar_angle_r	mtp_angle_r	hip_flexion_l	hip_adduction_l	hip_rotation_l	knee_angle_l	ankle_angle_l	subtalar_angle_l	mtp_angle_l	lumbar_extension	lumbar_bending	lumbar_rotation
      4.70000000	     36.14979412	      2.63716129	      8.84768264	      0.76569277	      0.66943246	     -0.25508897	    -29.84256928	      5.81086633	    -10.72896389	    -16.66461278	     20.97643997	      2.93132352	      0.00000000	    -20.82885688	     -6.21442162	     -5.58853594	    -71.36147371	      4.52079019	     -7.03803763	      0.00000000	    -60.26928856	      4.74080078	      0.86151098
      4.70500000	     36.11307943	      2.68394955	      8.46878221	      0.77221714	      0.67032748	     -0.25504226	    -30.89673689	      5.67839729	    -10.61925126	    -15.77274665	     20.97157101	      3.28138332	      0.00000000	    -19.87372240	     -5.67386341	     -5.82863000	    -70.97747205	      5.35430506	     -6.25599894	      0.00000000	    -60.25540884	      4.45676723	      1.27401207
      4.71000000	     36.06726864	      2.72201239	      8.09479577	      0.77871912	      0.67113231	     -0.25500955	    -31.93335605	      5.54443990	    -10.54233191	    -14.88317361	     20.94663817	      3.64358671	      0.00000000	    -18.92672832	     -5.14745511	     -6.04784541	    -70.49511919	      6.16319370	     -5.45303415	      0.00000000	    -60.24070573	      4.18075643	      1.68374796
      4.71500000	     36.03875847	      2.73875973	      7.71302690	      0.78523383	      0.67185064	     -0.25499939	    -32.98710632	      5.41850135	    -10.47151062	    -13.98824747	     20.93332399	      4.02463573	      0.00000000	    -18.03075466	     -4.64626869	     -6.26002756	    -69.90523018	      6.94504351	     -4.64002420	      0.00000000	    -60.24051482	      3.92120469	      2.09344689
      4.72000000	     36.14786556	      2.74949514	      7.25380207	      0.79175345	      0.67256953	     -0.25494969	    -34.20378128	      5.26337216	    -10.39045876	    -13.06363930	     20.88646164	      4.45007942	      0.00000000	    -17.36121561	     -4.14990669	     -6.53754604	    -69.14875298	      7.71681745	     -3.93119740	      0.00000000	    -60.37897950	      3.62024231	      2.55530861
      4.72500000	     36.03763091	      2.76051793	      6.90833138	      0.79825247	      0.67304945	     -0.25491103	    -35.14198231	      5.14548004	    -10.38481882	    -12.20144700	     20.86437298	      4.75461554	      0.00000000	    -16.39953428	     -3.67690169	     -6.65988532	    -68.39282269	      8.37688820	     -3.13833500	      0.00000000	    -60.30805594	      3.36469367	      2.91294852
      4.73000000	     35.98818972	      2.74807019	      6.54058935	      0.80472633	      0.67346373	     -0.25490129	    -36.13636288	      5.02986020	    -10.38687587	    -11.34811955	     20.82374971	      5.12144362	      0.00000000	    -15.54730403	     -3.22867754	     -6.78256031	    -67.51956215	      9.05272791	     -2.39741814	      0.00000000	    -60.30319293	      3.12179316	      3.30689288
      4.73500000	     35.97058968	      2.73871478	      6.15393932	      0.81120802	      0.67380486	     -0.25487469	    -37.15915757	      4.89938588	    -10.39163128	    -10.50818502	     20.77757179	      5.48515740	      0.00000000	    -14.77459717	     -2.78259420	     -6.89530703	    -66.52686078	      9.68565661	     -1.72207223	      0.00000000	    -60.33360063	      2.86485196	      3.70191288
      4.74000000	     35.91858908	      2.72242687	      5.78648980	      0.81766070	      0.67402747	     -0.25484141	    -38.11978716	      4.77891414	    -10.40382906	     -9.70543486	     20.72875332	      5.80263625	      0.00000000	    -13.97766029	     -2.35610244	     -6.95653972	    -65.45486582	     10.25113171	     -1.09325757	      0.00000000	    -60.33821576	      2.61389304	      4.08094162
      4.74500000	     35.81936595	      2.70475282	      5.45297240	      0.82409273	      0.67413280	     -0.25484296	    -38.99881830	      4.66819464	    -10.42450151	     -8.95893421	     20.65060372	      6.07471399	      0.00000000	    -13.14590742	     -1.93737120	     -6.94502386	    -64.29788776	     10.74927190	     -0.51919359	      0.00000000	    -60.30498315	      2.38686525	      4.46377757
      4.75000000	     35.88470108	      2.67330255	      5.01409545	      0.83056105	      0.67422064	     -0.25477612	    -40.06964035	      4.51119243	    -10.43019510	     -8.19329587	     20.64510955	      6.46013425	      0.00000000	    -12.58783863	     -1.53893809	     -7.03850562	    -62.97760184	     11.28266811	     -0.09366659	      0.00000000	    -60.42840439	      2.10151595	      4.85518778
      4.75500000	     35.73683753	      2.62962107	      4.70812404	      0.83701015	      0.67408411	     -0.25470658	    -40.86092453	      4.43918086	    -10.46364230	     -7.50643435	     20.61306567	      6.64316150	      0.00000000	    -11.75592153	     -1.19634888	     -6.97635525	    -61.65557256	     11.67603186	      0.36614003	      0.00000000	    -60.34465568	      1.88596357	      5.19778301
      4.76000000	     35.56956078	      2.53363743	      4.45713626	      0.84338559	      0.67379351	     -0.25473119	    -41.59699185	      4.43683580	    -10.50434257	     -6.86431894	     20.55657124	      6.75545677	      0.00000000	    -10.90894608	     -0.91567802	     -6.85859061	    -60.27717282	     12.11120266	      0.55048743	      0.00000000	    -60.26524473	      1.75545929	      5.54937287
      4.76500000	     35.54140757	      2.51060712	      4.02392841	      0.84990715	      0.67356258	     -0.25450623	    -42.49708152	      4.25827235	    -10.51374696	     -6.24746093	     20.66653659	      7.18862859	      0.00000000	    -10.35585240	     -0.57979846	     -6.88952915	    -58.67334811	     12.45820542	      1.00840134	      0.00000000	    -60.28345340	      1.40987522	      5.88091117
      4.77000000	     35.60802888	      2.45474294	      3.58481949	      0.85634035	      0.67328797	     -0.25437280	    -43.46515695	      4.09428996	    -10.47122372	     -5.68113544	     20.69859302	      7.45611982	      0.00000000	     -9.95651681	     -0.26938358	     -6.92654229	    -56.93947368	     12.80105691	      1.05171813	      0.00000000	    -60.42293625	      1.11724128	      6.27431880
      4.77500000	     35.40666563	      2.33680408	      3.38980790	      0.86271774	      0.67270048	     -0.25430959	    -44.08661204	      4.14089026	    -10.51480836	     -5.19872646	     20.70583250	      7.49660588	      0.00000000	     -9.18489485	     -0.09817262	     -6.74085479	    -55.27900025	     13.12248001	      1.11828009	      0.00000000	    -60.30018243	      1.00655419	      6.57490100
      4.78000000	     35.35013890	      2.26797313	      2.94014513	      0.86921751	      0.67218632	     -0.25408258	    -44.86505231	      3.95468843	    -10.46336251	     -4.75253515	     20.89423669	      7.86657333	      0.00000000	     -8.73109477	      0.14800479	     -6.80250060	    -53.37249068	     13.38470883	      1.16397973	      0.00000000	    -60.31186723	      0.68275995	      6.88837412
      4.78500000	     35.20140455	      2.17884043	      2.66746612	      0.87563368	      0.67151542	     -0.25393616	    -45.50788498	      3.91020188	    -10.45378365	     -4.35911055	     20.95181275	      7.97938284	      0.00000000	     -8.15251491	      0.31975040	     -6.69856840	    -51.44661136	     13.56979621	      1.15447690	      0.00000000	    -60.24477222	      0.48431027	      7.21396267
      4.79000000	     35.05969560	      2.06301808	      2.37176995	      0.88207605	      0.67077131	     -0.25377020	    -46.12366835	      3.85895574	    -10.42358822	     -4.04174429	     21.06909282	      8.15729806	      0.00000000	     -7.64699028	      0.44860636	     -6.63529137	    -49.40468807	     13.78547701	      1.06358668	      0.00000000	    -60.17783759	      0.28446976	      7.52477344
      4.79500000	     34.97905172	      1.92146698	      2.00841010	      0.88848765	      0.67000076	     -0.25355950	    -46.77141212	      3.76963315	    -10.34331286	     -3.78512056	     21.25078831	      8.35495171	      0.00000000	     -7.28591800	      0.53052202	     -6.70126281	    -47.22108491	     14.00388089	      0.92050172	      0.00000000	    -60.18143277	      0.06475148	      7.83369286
      4.80000000	     34.76927384	      1.79015934	      1.84673154	      0.89490171	      0.66906206	     -0.25343758	    -47.27100972	      3.82087564	    -10.37963376	     -3.55052251	     21.33240898	      8.40464547	      0.00000000	     -6.77042900	      0.56251494	     -6.60683360	    -45.02466659	     14.14870284	      0.84982505	      0.00000000	    -60.06011558	     -0.03135017	      8.11558101
      4.80500000	     34.69150957	      1.62431459	      1.44055197	      0.90134521	      0.66821448	     -0.25320750	    -47.85500408	      3.68944328	    -10.22406623	     -3.43956517	     21.55043137	      8.65724558	      0.00000000	     -6.55139107	      0.59042282	     -6.77681331	    -42.59530294	     14.28973457	      0.72375712	      0.00000000	    -60.06114221	     -0.27551570	      8.44009722
      4.81000000	     34.55199026	      1.46995458	      1.16323089	      0.90779246	      0.66725904	     -0.25301053	    -48.36761532	      3.64779164	    -10.14983965	     -3.34120847	     21.68744726	      8.77259161	      0.00000000	     -6.28852928	      0.57589355	     -6.90178499	    -40.10828896	     14.38234130	      0.69743867	      0.00000000	    -60.00443896	     -0.44138855	      8.74009364
      4.81500000	     34.33185888	      1.33705799	      0.98886069	      0.91427092	      0.66619800	     -0.25286739	    -48.77490586	      3.66046478	    -10.16598094	     -3.29312724	     21.82555426	      8.87456905	      0.00000000	     -5.96974644	      0.54826571	     -6.99775700	    -37.55996156	     14.38457595	      0.76928379	      0.00000000	    -59.86850005	     -0.55934245	      9.00450061
